<svg width="120" height="120" viewBox="0 0 120 120" fill="none" xmlns="http://www.w3.org/2000/svg">
<g clip-path="url(#clip0_5688_18191)">
<rect x="28" y="26" width="65" height="74" rx="7.90124" fill="#A800B7"/>
<rect width="45" height="16.65" transform="translate(36 37.1001)" fill="#A800B7"/>
<rect x="36" y="37.1001" width="45" height="6" rx="3" fill="#ED6AFF"/>
<rect x="36" y="49.1001" width="31" height="6" rx="3" fill="#ED6AFF"/>
<rect x="62" y="54" width="40" height="40" rx="20" fill="#C800DE"/>
<rect x="62" y="54" width="40" height="40" rx="20" stroke="#ED6AFF" stroke-width="4"/>
<g clip-path="url(#clip1_5688_18191)">
<path d="M77.2502 71.7309C77.1523 71.3655 77.16 70.9799 77.2724 70.6187L79.0587 64.8818C79.2627 64.2269 79.7881 63.7221 80.4507 63.5446L80.5735 63.5116C81.6969 63.2106 82.8392 63.9279 83.0561 65.0705L83.8698 69.3577L87.5425 68.3736C89.3806 67.8811 91.2069 69.2023 91.3142 71.1023L91.6597 77.2213C91.7398 78.6401 90.8135 79.9204 89.4409 80.2882L84.0698 81.7274C81.936 82.2992 79.7426 81.0329 79.1708 78.899L77.2502 71.7309Z" fill="white"/>
<path d="M71.8223 74.6565C71.5364 73.5895 72.1696 72.4929 73.2365 72.207L73.7195 72.0776C74.7864 71.7917 75.8831 72.4248 76.169 73.4918L77.9807 80.2533C78.2666 81.3202 77.6334 82.4169 76.5665 82.7027L76.0835 82.8322C75.0166 83.118 73.9199 82.4849 73.6341 81.4179L71.8223 74.6565Z" fill="white"/>
</g>
<rect x="-2.28825" y="1.66251" width="31.2442" height="37" rx="8.23758" transform="matrix(-0.987688 -0.156434 -0.156434 0.987688 51.9354 21.1757)" fill="#C800DE"/>
<rect x="-2.28825" y="1.66251" width="31.2442" height="37" rx="8.23758" transform="matrix(-0.987688 -0.156434 -0.156434 0.987688 51.9354 21.1757)" stroke="#ED6AFF" stroke-width="4"/>
<path d="M30.6641 45.8139L27.311 45.2829L34.7641 31.2925L38.7964 31.9312L41.5542 47.5388L38.2011 47.0077L36.3024 35.0029L36.1868 34.9846L30.6641 45.8139ZM31.3758 39.9635L39.2959 41.2179L38.9091 43.6605L30.989 42.406L31.3758 39.9635Z" fill="white"/>
<rect width="120" height="120" fill="#808080" fill-opacity="0.15" style="mix-blend-mode:saturation"/>
</g>
<defs>
<clipPath id="clip0_5688_18191">
<rect width="120" height="120" fill="white"/>
</clipPath>
<clipPath id="clip1_5688_18191">
<rect width="24" height="24" fill="white" transform="translate(67.3027 65.5146) rotate(-15)"/>
</clipPath>
</defs>
</svg>
