<svg width="244" height="74" viewBox="0 0 244 74" fill="none" xmlns="http://www.w3.org/2000/svg">
<path d="M19.7939 7.14648L1.36719 34.3027L0 36.3174H3.85254L2.58203 38.1777L1.2041 40.1953H14.7354L19.9307 45.6172L22.1523 47.9355V3.67188L19.7939 7.14648ZM19.5713 35.0273H19.5723V41.5137L16.2168 38.0127L15.8359 37.6152H6.08984L19.5713 17.8682V35.0273Z" fill="white"/>
<path d="M27.4204 7.14648L45.8472 34.3027L47.2144 36.3174H43.3628L44.6333 38.1777L46.0112 40.1953H32.48L27.2847 45.6172L25.063 47.9355V35.0273H25.062V3.67188L27.4204 7.14648ZM27.6431 41.5137L30.9985 38.0127L31.3794 37.6152H41.1255L27.6431 17.8672V41.5137Z" fill="white"/>
<path d="M74.2919 14.1436L83.7577 38.545C84.1456 39.5278 84.5853 40.1873 85.0767 40.5235C85.5681 40.8339 86.0207 41.002 86.4345 41.0278V41.8037C85.9172 41.752 85.2836 41.7261 84.5335 41.7261C83.7835 41.7003 83.0335 41.6873 82.2835 41.6873C81.2749 41.6873 80.3309 41.7003 79.4515 41.7261C78.5722 41.7261 77.861 41.752 77.3179 41.8037V41.0278C78.6369 40.9761 79.4774 40.7563 79.8395 40.3683C80.2016 39.9545 80.124 39.0881 79.6067 37.7691L72.391 18.4885L73.0117 17.9842L66.2616 35.5191C65.8478 36.5536 65.6021 37.4329 65.5245 38.1571C65.4469 38.8554 65.5116 39.4114 65.7185 39.8252C65.9512 40.239 66.3262 40.5364 66.8435 40.7175C67.3866 40.8985 68.059 41.002 68.8608 41.0278V41.8037C68.1366 41.752 67.3737 41.7261 66.5719 41.7261C65.796 41.7003 65.0719 41.6873 64.3995 41.6873C63.7529 41.6873 63.1969 41.7003 62.7313 41.7261C62.2917 41.7261 61.8779 41.752 61.4899 41.8037V41.0278C62.0072 40.8985 62.5374 40.6011 63.0805 40.1356C63.6236 39.6442 64.115 38.8166 64.5546 37.6528L73.6712 14.1436C73.7747 14.1436 73.8781 14.1436 73.9816 14.1436C74.085 14.1436 74.1885 14.1436 74.2919 14.1436ZM79.0248 30.631V31.4069H67.4642L67.8521 30.631H79.0248ZM93.4904 21.3981V45.2176C93.4904 46.3297 93.8137 47.0668 94.4603 47.4288C95.1327 47.8168 96.0508 48.0107 97.2146 48.0107V48.8254C96.6457 48.7996 95.8568 48.7608 94.8482 48.709C93.8396 48.6832 92.7663 48.6702 91.6283 48.6702C90.8266 48.6702 90.0248 48.6832 89.2231 48.709C88.4472 48.7608 87.8524 48.7996 87.4386 48.8254V48.0107C88.3696 48.0107 89.0291 47.8426 89.417 47.5064C89.805 47.1702 89.999 46.5366 89.999 45.6055V26.0533C89.999 24.8895 89.7921 24.0361 89.3783 23.4929C88.9644 22.924 88.1886 22.6395 87.0506 22.6395V21.8248C87.8782 21.9024 88.68 21.9412 89.4558 21.9412C90.2059 21.9412 90.9171 21.9024 91.5895 21.8248C92.2878 21.7214 92.9214 21.5791 93.4904 21.3981ZM99.6975 21.2817C101.068 21.2817 102.297 21.6567 103.383 22.4067C104.469 23.1309 105.323 24.2042 105.943 25.6266C106.59 27.0491 106.913 28.8077 106.913 30.9026C106.913 32.2992 106.745 33.6828 106.409 35.0536C106.073 36.3984 105.542 37.6269 104.818 38.739C104.12 39.8252 103.202 40.7045 102.064 41.377C100.952 42.0235 99.6069 42.3468 98.0293 42.3468C96.8138 42.3468 95.7534 42.0623 94.8482 41.4934C93.9689 40.9244 93.374 40.239 93.0637 39.4373L93.4516 38.8942C93.8137 39.6183 94.331 40.2261 95.0034 40.7175C95.7017 41.2089 96.5681 41.4546 97.6026 41.4546C99.0509 41.4546 100.176 41.002 100.978 40.0968C101.779 39.1916 102.335 37.989 102.646 36.4889C102.982 34.963 103.15 33.282 103.15 31.4457C103.15 29.3767 102.982 27.6827 102.646 26.3637C102.31 25.0447 101.805 24.0619 101.133 23.4154C100.46 22.7688 99.6328 22.4455 98.65 22.4455C97.3827 22.4455 96.2319 22.9757 95.1973 24.0361C94.1628 25.0706 93.5033 26.6482 93.2189 28.7689L92.7533 28.2258C93.0378 26.0275 93.8137 24.3206 95.081 23.105C96.3741 21.8895 97.9129 21.2817 99.6975 21.2817ZM116.032 21.3981V45.2176C116.032 46.3297 116.355 47.0668 117.002 47.4288C117.674 47.8168 118.592 48.0107 119.756 48.0107V48.8254C119.187 48.7996 118.398 48.7608 117.39 48.709C116.381 48.6832 115.308 48.6702 114.17 48.6702C113.368 48.6702 112.566 48.6832 111.765 48.709C110.989 48.7608 110.394 48.7996 109.98 48.8254V48.0107C110.911 48.0107 111.571 47.8426 111.958 47.5064C112.346 47.1702 112.54 46.5366 112.54 45.6055V26.0533C112.54 24.8895 112.333 24.0361 111.92 23.4929C111.506 22.924 110.73 22.6395 109.592 22.6395V21.8248C110.42 21.9024 111.221 21.9412 111.997 21.9412C112.747 21.9412 113.459 21.9024 114.131 21.8248C114.829 21.7214 115.463 21.5791 116.032 21.3981ZM122.239 21.2817C123.61 21.2817 124.838 21.6567 125.924 22.4067C127.011 23.1309 127.864 24.2042 128.485 25.6266C129.131 27.0491 129.455 28.8077 129.455 30.9026C129.455 32.2992 129.286 33.6828 128.95 35.0536C128.614 36.3984 128.084 37.6269 127.36 38.739C126.661 39.8252 125.743 40.7045 124.605 41.377C123.493 42.0235 122.148 42.3468 120.571 42.3468C119.355 42.3468 118.295 42.0623 117.39 41.4934C116.51 40.9244 115.915 40.239 115.605 39.4373L115.993 38.8942C116.355 39.6183 116.872 40.2261 117.545 40.7175C118.243 41.2089 119.109 41.4546 120.144 41.4546C121.592 41.4546 122.717 41.002 123.519 40.0968C124.321 39.1916 124.877 37.989 125.187 36.4889C125.523 34.963 125.692 33.282 125.692 31.4457C125.692 29.3767 125.523 27.6827 125.187 26.3637C124.851 25.0447 124.347 24.0619 123.674 23.4154C123.002 22.7688 122.174 22.4455 121.191 22.4455C119.924 22.4455 118.773 22.9757 117.739 24.0361C116.704 25.0706 116.045 26.6482 115.76 28.7689L115.295 28.2258C115.579 26.0275 116.355 24.3206 117.622 23.105C118.916 21.8895 120.454 21.2817 122.239 21.2817ZM138.573 11.3892V38.1959C138.573 39.2821 138.793 40.0192 139.233 40.4071C139.698 40.7951 140.461 40.989 141.522 40.989V41.8037C141.082 41.7778 140.41 41.752 139.504 41.7261C138.625 41.6744 137.733 41.6485 136.828 41.6485C135.948 41.6485 135.056 41.6744 134.151 41.7261C133.246 41.752 132.573 41.7778 132.133 41.8037V40.989C133.194 40.989 133.944 40.7951 134.384 40.4071C134.849 40.0192 135.082 39.2821 135.082 38.1959V16.0445C135.082 14.8807 134.875 14.0272 134.461 13.4841C134.047 12.9151 133.271 12.6306 132.133 12.6306V11.816C132.961 11.8935 133.763 11.9323 134.539 11.9323C135.289 11.9323 136 11.8935 136.672 11.816C137.371 11.7125 138.004 11.5703 138.573 11.3892ZM147.928 12.1263C148.6 12.1263 149.182 12.372 149.674 12.8634C150.165 13.3548 150.411 13.9367 150.411 14.6091C150.411 15.2816 150.165 15.8635 149.674 16.3549C149.182 16.8462 148.6 17.0919 147.928 17.0919C147.255 17.0919 146.673 16.8462 146.182 16.3549C145.691 15.8635 145.445 15.2816 145.445 14.6091C145.445 13.9367 145.691 13.3548 146.182 12.8634C146.673 12.372 147.255 12.1263 147.928 12.1263ZM149.945 21.3981V38.1959C149.945 39.2821 150.165 40.0192 150.605 40.4071C151.07 40.7951 151.833 40.989 152.893 40.989V41.8037C152.454 41.7778 151.781 41.752 150.876 41.7261C149.997 41.6744 149.105 41.6485 148.199 41.6485C147.32 41.6485 146.428 41.6744 145.523 41.7261C144.617 41.752 143.945 41.7778 143.505 41.8037V40.989C144.566 40.989 145.316 40.7951 145.755 40.4071C146.221 40.0192 146.454 39.2821 146.454 38.1959V26.0533C146.454 24.8895 146.247 24.0361 145.833 23.4929C145.419 22.924 144.643 22.6395 143.505 22.6395V21.8248C144.333 21.9024 145.135 21.9412 145.91 21.9412C146.661 21.9412 147.372 21.9024 148.044 21.8248C148.742 21.7214 149.376 21.5791 149.945 21.3981ZM164.569 21.2817C165.397 21.2817 166.199 21.3851 166.974 21.592C167.75 21.7989 168.449 22.1093 169.069 22.5231C169.664 22.911 170.117 23.3636 170.427 23.8809C170.737 24.3723 170.893 24.9154 170.893 25.5102C170.893 26.2085 170.699 26.7516 170.311 27.1396C169.923 27.5017 169.431 27.6827 168.837 27.6827C168.268 27.6827 167.763 27.5146 167.324 27.1784C166.91 26.8422 166.703 26.3637 166.703 25.743C166.703 25.1482 166.858 24.6697 167.168 24.3076C167.505 23.9455 167.893 23.7128 168.332 23.6093C168.074 23.1438 167.608 22.7559 166.936 22.4455C166.289 22.1352 165.591 21.98 164.841 21.98C164.194 21.98 163.548 22.1352 162.901 22.4455C162.254 22.7559 161.66 23.2731 161.117 23.9973C160.573 24.6956 160.134 25.6654 159.798 26.9068C159.461 28.1224 159.293 29.6483 159.293 31.4845C159.293 33.7604 159.552 35.5708 160.069 36.9157C160.586 38.2605 161.259 39.2304 162.086 39.8252C162.94 40.3942 163.871 40.6787 164.88 40.6787C165.552 40.6787 166.237 40.5494 166.936 40.2907C167.634 40.0321 168.293 39.6183 168.914 39.0493C169.535 38.4545 170.065 37.6657 170.505 36.6829L171.242 36.9545C170.983 37.7821 170.556 38.6226 169.962 39.4761C169.367 40.3037 168.591 40.989 167.634 41.5322C166.677 42.0753 165.5 42.3468 164.104 42.3468C162.5 42.3468 161.052 41.933 159.759 41.1054C158.466 40.2778 157.431 39.1011 156.655 37.5752C155.905 36.0234 155.53 34.1872 155.53 32.0664C155.53 29.9457 155.905 28.0836 156.655 26.4801C157.431 24.8507 158.504 23.5835 159.875 22.6783C161.246 21.7472 162.811 21.2817 164.569 21.2817ZM179.246 42.0753C178.186 42.0753 177.268 41.8813 176.492 41.4934C175.716 41.0796 175.121 40.5106 174.707 39.7864C174.319 39.0623 174.125 38.2217 174.125 37.2648C174.125 36.1269 174.384 35.1958 174.901 34.4716C175.444 33.7475 176.13 33.1656 176.957 32.7259C177.785 32.2863 178.651 31.9242 179.556 31.6397C180.487 31.3293 181.367 31.0448 182.194 30.7862C183.022 30.5017 183.694 30.1784 184.212 29.8164C184.755 29.4543 185.026 28.9758 185.026 28.381V25.9758C185.026 24.8895 184.858 24.0619 184.522 23.4929C184.212 22.924 183.785 22.549 183.242 22.3679C182.699 22.161 182.091 22.0576 181.419 22.0576C180.772 22.0576 180.074 22.1481 179.324 22.3291C178.599 22.5102 178.018 22.8852 177.578 23.4542C178.069 23.5576 178.496 23.8162 178.858 24.23C179.22 24.6438 179.401 25.174 179.401 25.8206C179.401 26.4672 179.194 26.9844 178.781 27.3723C178.367 27.7344 177.837 27.9155 177.19 27.9155C176.44 27.9155 175.884 27.6827 175.522 27.2172C175.186 26.7258 175.018 26.1827 175.018 25.5878C175.018 24.9154 175.186 24.3723 175.522 23.9585C175.858 23.5447 176.285 23.1567 176.802 22.7947C177.397 22.3809 178.16 22.0317 179.091 21.7472C180.048 21.4369 181.121 21.2817 182.311 21.2817C183.371 21.2817 184.276 21.411 185.026 21.6696C185.776 21.9024 186.397 22.2515 186.888 22.7171C187.561 23.3378 188.001 24.1007 188.207 25.0059C188.414 25.8852 188.518 26.9456 188.518 28.187V38.9717C188.518 39.6183 188.608 40.0838 188.789 40.3683C188.996 40.6528 189.307 40.7951 189.72 40.7951C190.005 40.7951 190.276 40.7304 190.535 40.6011C190.794 40.4718 191.104 40.2649 191.466 39.9804L191.893 40.6399C191.35 41.0537 190.833 41.4028 190.341 41.6873C189.85 41.946 189.19 42.0753 188.363 42.0753C187.613 42.0753 186.992 41.946 186.501 41.6873C186.009 41.4287 185.634 41.0537 185.375 40.5623C185.143 40.045 185.026 39.3985 185.026 38.6226C184.328 39.7864 183.488 40.6528 182.505 41.2218C181.548 41.7908 180.462 42.0753 179.246 42.0753ZM180.643 40.5235C181.496 40.5235 182.285 40.2778 183.009 39.7864C183.759 39.295 184.432 38.5579 185.026 37.5752V29.9715C184.716 30.4112 184.263 30.7862 183.669 31.0966C183.074 31.3811 182.427 31.6785 181.729 31.9888C181.031 32.2733 180.358 32.6225 179.712 33.0363C179.091 33.4242 178.574 33.9415 178.16 34.588C177.746 35.2346 177.539 36.0751 177.539 37.1096C177.539 38.1441 177.811 38.9717 178.354 39.5925C178.923 40.2132 179.686 40.5235 180.643 40.5235ZM204.58 21.2817C206.701 21.2817 208.46 22.161 209.856 23.9197C211.253 25.6525 211.951 28.2905 211.951 31.8337C211.951 34.1613 211.55 36.1139 210.749 37.6915C209.973 39.2433 208.925 40.4071 207.606 41.183C206.287 41.9589 204.852 42.3468 203.3 42.3468C202.007 42.3468 200.753 41.9847 199.537 41.2606C198.347 40.5106 197.455 39.4114 196.86 37.9631L197.636 38.3898C198.283 39.4243 199.085 40.2002 200.041 40.7175C200.998 41.2089 201.981 41.4546 202.99 41.4546C204.723 41.4546 206.016 40.6787 206.869 39.1269C207.749 37.5493 208.188 35.1182 208.188 31.8337C208.188 29.7388 208.02 27.993 207.684 26.5965C207.348 25.1999 206.83 24.1654 206.132 23.4929C205.434 22.7947 204.542 22.4455 203.455 22.4455C202.266 22.4455 201.154 22.9886 200.119 24.0749C199.11 25.1352 198.49 26.6999 198.257 28.7689L197.791 28.2258C198.076 26.0275 198.839 24.3206 200.08 23.105C201.348 21.8895 202.848 21.2817 204.58 21.2817ZM198.528 11.428V39.7864C198.192 40.0709 197.843 40.3683 197.481 40.6787C197.145 40.9632 196.809 41.2477 196.472 41.5322C196.136 41.8166 195.787 42.1141 195.425 42.4244L194.765 42.1529C194.869 41.7908 194.934 41.4287 194.959 41.0666C195.011 40.6787 195.037 40.2907 195.037 39.9028V16.0833C195.037 14.9195 194.83 14.066 194.416 13.5229C194.003 12.9539 193.227 12.6694 192.089 12.6694V11.8547C192.916 11.9323 193.718 11.9711 194.494 11.9711C195.244 11.9711 195.955 11.9323 196.628 11.8547C197.326 11.7513 197.96 11.6091 198.528 11.428ZM220.707 11.3892V38.1959C220.707 39.2821 220.927 40.0192 221.367 40.4071C221.832 40.7951 222.595 40.989 223.656 40.989V41.8037C223.216 41.7778 222.544 41.752 221.638 41.7261C220.759 41.6744 219.867 41.6485 218.962 41.6485C218.082 41.6485 217.19 41.6744 216.285 41.7261C215.38 41.752 214.707 41.7778 214.268 41.8037V40.989C215.328 40.989 216.078 40.7951 216.518 40.4071C216.983 40.0192 217.216 39.2821 217.216 38.1959V16.0445C217.216 14.8807 217.009 14.0272 216.595 13.4841C216.181 12.9151 215.406 12.6306 214.268 12.6306V11.816C215.095 11.8935 215.897 11.9323 216.673 11.9323C217.423 11.9323 218.134 11.8935 218.807 11.816C219.505 11.7125 220.138 11.5703 220.707 11.3892ZM234.688 21.2817C236.963 21.2817 238.735 21.98 240.002 23.3766C241.295 24.7473 241.942 26.8939 241.942 29.8164H228.248L228.209 29.0793H238.218C238.269 27.812 238.166 26.6482 237.907 25.5878C237.649 24.5016 237.235 23.6352 236.666 22.9886C236.123 22.3421 235.412 22.0188 234.532 22.0188C233.343 22.0188 232.282 22.6136 231.351 23.8033C230.446 24.993 229.903 26.881 229.722 29.4672L229.838 29.6224C229.787 30.0103 229.748 30.4371 229.722 30.9026C229.696 31.3681 229.683 31.8337 229.683 32.2992C229.683 34.0578 229.968 35.5708 230.537 36.8381C231.106 38.1054 231.843 39.0752 232.748 39.7476C233.679 40.3942 234.636 40.7175 235.619 40.7175C236.394 40.7175 237.132 40.6011 237.83 40.3683C238.528 40.1097 239.175 39.6959 239.77 39.1269C240.364 38.5579 240.882 37.795 241.321 36.8381L242.097 37.1484C241.813 38.0019 241.347 38.8295 240.701 39.6312C240.054 40.433 239.239 41.0925 238.257 41.6097C237.274 42.1011 236.136 42.3468 234.843 42.3468C232.981 42.3468 231.377 41.9201 230.032 41.0666C228.713 40.2132 227.692 39.0364 226.968 37.5364C226.269 36.0105 225.92 34.2647 225.92 32.2992C225.92 30.0233 226.282 28.0706 227.006 26.4413C227.73 24.7861 228.752 23.5188 230.071 22.6395C231.39 21.7343 232.929 21.2817 234.688 21.2817Z" fill="white"/>
<path d="M63.6581 68.4785L61.9034 60.0149H63.0517L63.9161 64.6208C64.0021 65.0767 64.0839 65.5326 64.1613 65.9884C64.2387 66.4443 64.3118 66.9131 64.3806 67.3948H64.4322C64.5182 66.9131 64.6085 66.4443 64.7031 65.9884C64.8064 65.5326 64.9096 65.0767 65.0128 64.6208L66.1611 60.0149H67.2448L68.3544 64.6208C68.4576 65.0681 68.5608 65.524 68.664 65.9884C68.7673 66.4443 68.8662 66.9131 68.9608 67.3948H69.0124C69.0812 66.9131 69.1543 66.4443 69.2317 65.9884C69.3091 65.5326 69.3865 65.0767 69.464 64.6208L70.3542 60.0149H71.4509L69.6833 68.4785H68.3028L67.09 63.3952C67.0212 63.0769 66.9524 62.7587 66.8836 62.4404C66.8234 62.1136 66.7632 61.7695 66.7029 61.4083H66.6513C66.5997 61.7695 66.5395 62.1136 66.4707 62.4404C66.4105 62.7587 66.346 63.0769 66.2772 63.3952L65.0386 68.4785H63.6581ZM72.8073 68.4785V59.2924H73.8652V61.7953L73.8265 63.0855C74.1276 62.8017 74.4415 62.5608 74.7684 62.363C75.1038 62.1566 75.4866 62.0534 75.9166 62.0534C76.5789 62.0534 77.0606 62.2641 77.3616 62.6856C77.6713 63.0984 77.8261 63.7048 77.8261 64.5047V68.4785H76.7682V64.6466C76.7682 64.0532 76.6735 63.6274 76.4843 63.3694C76.3037 63.1027 76.0026 62.9694 75.5812 62.9694C75.2629 62.9694 74.9748 63.0511 74.7167 63.2145C74.4673 63.378 74.1835 63.6188 73.8652 63.937V68.4785H72.8073ZM82.3669 68.6333C81.8078 68.6333 81.296 68.5043 80.8316 68.2463C80.3757 67.9796 80.0144 67.6055 79.7478 67.1238C79.4812 66.6335 79.3478 66.0401 79.3478 65.3433C79.3478 64.6638 79.4855 64.079 79.7607 63.5887C80.0359 63.0984 80.3886 62.72 80.8187 62.4533C81.2487 62.1867 81.7046 62.0534 82.1863 62.0534C82.7195 62.0534 83.1711 62.1781 83.541 62.4275C83.9194 62.6684 84.2033 63.0081 84.3925 63.4468C84.5817 63.8854 84.6763 64.4015 84.6763 64.995C84.6763 65.1068 84.672 65.2143 84.6634 65.3175C84.6634 65.4208 84.6505 65.524 84.6247 65.6272H80.109V64.7886H83.7216C83.7216 64.1865 83.5883 63.7263 83.3216 63.4081C83.0636 63.0812 82.6894 62.9178 82.1992 62.9178C81.9153 62.9178 81.6358 62.9995 81.3605 63.1629C81.0853 63.3177 80.8574 63.5715 80.6767 63.9241C80.5047 64.2768 80.4187 64.7456 80.4187 65.3304C80.4187 65.8637 80.509 66.311 80.6896 66.6722C80.8789 67.0335 81.1326 67.3087 81.4508 67.498C81.7691 67.6786 82.1174 67.7689 82.4959 67.7689C82.7969 67.7689 83.0765 67.7259 83.3345 67.6399C83.6012 67.5539 83.842 67.4378 84.057 67.2915L84.4441 67.9882C84.1688 68.1775 83.8592 68.3323 83.5152 68.4527C83.1797 68.5731 82.7969 68.6333 82.3669 68.6333ZM86.2258 68.4785V62.2082H87.1031L87.1934 63.3436H87.2321C87.4385 62.9479 87.6966 62.6339 88.0062 62.4017C88.3159 62.1695 88.6513 62.0534 89.0126 62.0534C89.1502 62.0534 89.2706 62.062 89.3738 62.0792C89.477 62.0964 89.5803 62.1308 89.6835 62.1824L89.4512 63.0855C89.3566 63.0597 89.2663 63.0425 89.1803 63.0339C89.1029 63.0167 88.9997 63.0081 88.8707 63.0081C88.604 63.0081 88.3245 63.1156 88.032 63.3307C87.7482 63.5457 87.4988 63.9198 87.2837 64.4531V68.4785H86.2258ZM93.1143 68.6333C92.5552 68.6333 92.0434 68.5043 91.5789 68.2463C91.1231 67.9796 90.7618 67.6055 90.4952 67.1238C90.2285 66.6335 90.0952 66.0401 90.0952 65.3433C90.0952 64.6638 90.2328 64.079 90.5081 63.5887C90.7833 63.0984 91.136 62.72 91.566 62.4533C91.9961 62.1867 92.452 62.0534 92.9336 62.0534C93.4669 62.0534 93.9185 62.1781 94.2883 62.4275C94.6668 62.6684 94.9506 63.0081 95.1399 63.4468C95.3291 63.8854 95.4237 64.4015 95.4237 64.995C95.4237 65.1068 95.4194 65.2143 95.4108 65.3175C95.4108 65.4208 95.3979 65.524 95.3721 65.6272H90.8564V64.7886H94.469C94.469 64.1865 94.3357 63.7263 94.069 63.4081C93.811 63.0812 93.4368 62.9178 92.9466 62.9178C92.6627 62.9178 92.3832 62.9995 92.1079 63.1629C91.8327 63.3177 91.6048 63.5715 91.4241 63.9241C91.2521 64.2768 91.1661 64.7456 91.1661 65.3304C91.1661 65.8637 91.2564 66.311 91.437 66.6722C91.6263 67.0335 91.88 67.3087 92.1982 67.498C92.5165 67.6786 92.8648 67.7689 93.2433 67.7689C93.5443 67.7689 93.8239 67.7259 94.0819 67.6399C94.3486 67.5539 94.5894 67.4378 94.8044 67.2915L95.1915 67.9882C94.9162 68.1775 94.6066 68.3323 94.2625 68.4527C93.9271 68.5731 93.5443 68.6333 93.1143 68.6333ZM101.195 68.6333C100.739 68.6333 100.304 68.5559 99.8915 68.4011C99.4873 68.2377 99.1432 68.014 98.8594 67.7302L99.3496 67.1109C99.6249 67.3345 99.9087 67.5066 100.201 67.627C100.502 67.7474 100.846 67.8076 101.233 67.8076C101.646 67.8076 101.956 67.713 102.162 67.5238C102.369 67.3259 102.472 67.0937 102.472 66.8271C102.472 66.612 102.399 66.4357 102.253 66.2981C102.115 66.1519 101.939 66.0315 101.724 65.9368C101.517 65.8336 101.294 65.739 101.053 65.653C100.743 65.5412 100.446 65.4122 100.162 65.2659C99.8786 65.1111 99.6464 64.9219 99.4657 64.6983C99.2937 64.466 99.2077 64.1779 99.2077 63.8338C99.2077 63.3264 99.3969 62.9049 99.7754 62.5694C100.162 62.2254 100.696 62.0534 101.375 62.0534C101.762 62.0534 102.124 62.1222 102.459 62.2598C102.794 62.3888 103.083 62.5565 103.323 62.763L102.833 63.3694C102.61 63.2145 102.382 63.0941 102.149 63.0081C101.917 62.9221 101.659 62.8791 101.375 62.8791C100.98 62.8791 100.687 62.9694 100.498 63.15C100.317 63.3307 100.227 63.5414 100.227 63.7822C100.227 63.9714 100.283 64.1306 100.395 64.2596C100.507 64.38 100.661 64.4875 100.859 64.5821C101.066 64.6768 101.298 64.7671 101.556 64.8531C101.883 64.9735 102.192 65.1111 102.485 65.2659C102.786 65.4122 103.027 65.6057 103.207 65.8465C103.397 66.0788 103.491 66.3841 103.491 66.7626C103.491 67.1066 103.401 67.4206 103.22 67.7044C103.048 67.9796 102.79 68.2033 102.446 68.3753C102.111 68.5473 101.693 68.6333 101.195 68.6333ZM104.961 68.4785V59.2924H106.019V65.4982H106.045L108.703 62.2082H109.89L107.8 64.737L110.174 68.4785H109.012L107.18 65.4595L106.019 66.8271V68.4785H104.961ZM111.349 68.4785V62.2082H112.407V68.4785H111.349ZM111.878 60.918C111.672 60.918 111.5 60.8535 111.362 60.7245C111.233 60.5954 111.169 60.4277 111.169 60.2213C111.169 60.0149 111.233 59.8471 111.362 59.7181C111.5 59.5891 111.672 59.5246 111.878 59.5246C112.085 59.5246 112.252 59.5891 112.381 59.7181C112.519 59.8471 112.588 60.0149 112.588 60.2213C112.588 60.4277 112.519 60.5954 112.381 60.7245C112.252 60.8535 112.085 60.918 111.878 60.918ZM115.647 68.5946C115.38 68.5946 115.165 68.543 115.002 68.4398C114.838 68.328 114.718 68.1689 114.64 67.9624C114.563 67.7474 114.524 67.4894 114.524 67.1883V59.2924H115.582V67.2657C115.582 67.4378 115.612 67.5582 115.673 67.627C115.733 67.6872 115.806 67.7173 115.892 67.7173C115.926 67.7173 115.956 67.7173 115.982 67.7173C116.017 67.7087 116.06 67.7001 116.111 67.6915L116.266 68.4914C116.189 68.5172 116.098 68.5387 115.995 68.5559C115.901 68.5817 115.784 68.5946 115.647 68.5946ZM118.935 68.5946C118.669 68.5946 118.454 68.543 118.29 68.4398C118.127 68.328 118.006 68.1689 117.929 67.9624C117.851 67.7474 117.813 67.4894 117.813 67.1883V59.2924H118.871V67.2657C118.871 67.4378 118.901 67.5582 118.961 67.627C119.021 67.6872 119.094 67.7173 119.18 67.7173C119.215 67.7173 119.245 67.7173 119.271 67.7173C119.305 67.7087 119.348 67.7001 119.4 67.6915L119.555 68.4914C119.477 68.5172 119.387 68.5387 119.284 68.5559C119.189 68.5817 119.073 68.5946 118.935 68.5946ZM122.74 68.6333C122.284 68.6333 121.85 68.5559 121.437 68.4011C121.032 68.2377 120.688 68.014 120.405 67.7302L120.895 67.1109C121.17 67.3345 121.454 67.5066 121.746 67.627C122.047 67.7474 122.391 67.8076 122.779 67.8076C123.191 67.8076 123.501 67.713 123.707 67.5238C123.914 67.3259 124.017 67.0937 124.017 66.8271C124.017 66.612 123.944 66.4357 123.798 66.2981C123.66 66.1519 123.484 66.0315 123.269 65.9368C123.062 65.8336 122.839 65.739 122.598 65.653C122.288 65.5412 121.991 65.4122 121.708 65.2659C121.424 65.1111 121.192 64.9219 121.011 64.6983C120.839 64.466 120.753 64.1779 120.753 63.8338C120.753 63.3264 120.942 62.9049 121.321 62.5694C121.708 62.2254 122.241 62.0534 122.92 62.0534C123.307 62.0534 123.669 62.1222 124.004 62.2598C124.34 62.3888 124.628 62.5565 124.869 62.763L124.378 63.3694C124.155 63.2145 123.927 63.0941 123.695 63.0081C123.462 62.9221 123.204 62.8791 122.92 62.8791C122.525 62.8791 122.232 62.9694 122.043 63.15C121.862 63.3307 121.772 63.5414 121.772 63.7822C121.772 63.9714 121.828 64.1306 121.94 64.2596C122.052 64.38 122.207 64.4875 122.404 64.5821C122.611 64.6768 122.843 64.7671 123.101 64.8531C123.428 64.9735 123.738 65.1111 124.03 65.2659C124.331 65.4122 124.572 65.6057 124.752 65.8465C124.942 66.0788 125.036 66.3841 125.036 66.7626C125.036 67.1066 124.946 67.4206 124.765 67.7044C124.593 67.9796 124.335 68.2033 123.991 68.3753C123.656 68.5473 123.239 68.6333 122.74 68.6333ZM131.063 68.5946C130.401 68.5946 129.937 68.4011 129.67 68.014C129.403 67.627 129.27 67.1238 129.27 66.5045V63.0726H128.341V62.2727L129.322 62.2082L129.451 60.1955H130.341V62.2082H132.044V63.0726H130.341V66.5174C130.341 66.8959 130.41 67.1926 130.547 67.4077C130.693 67.6227 130.947 67.7302 131.308 67.7302C131.42 67.7302 131.536 67.7216 131.657 67.7044C131.777 67.6786 131.898 67.6356 132.018 67.5754L132.25 68.3237C132.087 68.4011 131.902 68.4656 131.696 68.5172C131.489 68.5688 131.278 68.5946 131.063 68.5946ZM134.617 68.6333C134.273 68.6333 133.959 68.5645 133.675 68.4269C133.4 68.2807 133.18 68.0786 133.017 67.8205C132.853 67.5539 132.772 67.2313 132.772 66.8529C132.772 66.1476 133.081 65.6143 133.701 65.253C134.32 64.8918 135.3 64.638 136.642 64.4918C136.634 64.2338 136.591 63.9843 136.513 63.7435C136.444 63.5027 136.315 63.3091 136.126 63.1629C135.937 63.0167 135.675 62.9436 135.339 62.9436C134.978 62.9436 134.638 63.0124 134.32 63.15C134.002 63.279 133.718 63.4253 133.468 63.5887L133.055 62.8662C133.245 62.7372 133.468 62.6124 133.726 62.492C133.984 62.363 134.264 62.2598 134.565 62.1824C134.866 62.0964 135.184 62.0534 135.52 62.0534C136.027 62.0534 136.44 62.1609 136.758 62.3759C137.085 62.5823 137.322 62.8791 137.468 63.2661C137.623 63.6532 137.7 64.1091 137.7 64.6337V68.4785H136.823L136.733 67.7302H136.694C136.393 67.9796 136.07 68.1947 135.726 68.3753C135.382 68.5473 135.012 68.6333 134.617 68.6333ZM134.913 67.756C135.223 67.756 135.511 67.6872 135.778 67.5496C136.053 67.412 136.341 67.2098 136.642 66.9432V65.253C135.937 65.339 135.378 65.4509 134.965 65.5885C134.561 65.7175 134.268 65.8809 134.088 66.0788C133.907 66.2766 133.817 66.5131 133.817 66.7884C133.817 67.1324 133.924 67.3819 134.139 67.5367C134.354 67.6829 134.612 67.756 134.913 67.756ZM139.673 68.4785V59.2924H140.731V65.4982H140.757L143.415 62.2082H144.601L142.511 64.737L144.885 68.4785H143.724L141.892 65.4595L140.731 66.8271V68.4785H139.673ZM148.376 68.6333C147.817 68.6333 147.305 68.5043 146.84 68.2463C146.385 67.9796 146.023 67.6055 145.757 67.1238C145.49 66.6335 145.357 66.0401 145.357 65.3433C145.357 64.6638 145.494 64.079 145.77 63.5887C146.045 63.0984 146.398 62.72 146.828 62.4533C147.258 62.1867 147.714 62.0534 148.195 62.0534C148.728 62.0534 149.18 62.1781 149.55 62.4275C149.928 62.6684 150.212 63.0081 150.401 63.4468C150.591 63.8854 150.685 64.4015 150.685 64.995C150.685 65.1068 150.681 65.2143 150.672 65.3175C150.672 65.4208 150.659 65.524 150.634 65.6272H146.118V64.7886H149.731C149.731 64.1865 149.597 63.7263 149.331 63.4081C149.073 63.0812 148.698 62.9178 148.208 62.9178C147.924 62.9178 147.645 62.9995 147.369 63.1629C147.094 63.3177 146.866 63.5715 146.686 63.9241C146.514 64.2768 146.428 64.7456 146.428 65.3304C146.428 65.8637 146.518 66.311 146.699 66.6722C146.888 67.0335 147.142 67.3087 147.46 67.498C147.778 67.6786 148.126 67.7689 148.505 67.7689C148.806 67.7689 149.085 67.7259 149.343 67.6399C149.61 67.5539 149.851 67.4378 150.066 67.2915L150.453 67.9882C150.178 68.1775 149.868 68.3323 149.524 68.4527C149.189 68.5731 148.806 68.6333 148.376 68.6333ZM154.998 68.4785V61.2147C154.998 60.7933 155.063 60.4277 155.192 60.1181C155.321 59.7998 155.519 59.559 155.785 59.3956C156.06 59.2235 156.409 59.1375 156.83 59.1375C157.02 59.1375 157.204 59.159 157.385 59.202C157.574 59.2364 157.738 59.2838 157.875 59.344L157.643 60.1181C157.394 60.0407 157.157 60.002 156.933 60.002C156.641 60.002 156.422 60.1052 156.276 60.3116C156.129 60.5094 156.056 60.8105 156.056 61.2147V68.4785H154.998ZM154.069 63.0726V62.2727L155.05 62.2082H157.385V63.0726H154.069ZM159.707 68.5946C159.441 68.5946 159.226 68.543 159.062 68.4398C158.899 68.328 158.778 68.1689 158.701 67.9624C158.624 67.7474 158.585 67.4894 158.585 67.1883V59.2924H159.643V67.2657C159.643 67.4378 159.673 67.5582 159.733 67.627C159.793 67.6872 159.866 67.7173 159.952 67.7173C159.987 67.7173 160.017 67.7173 160.043 67.7173C160.077 67.7087 160.12 67.7001 160.172 67.6915L160.327 68.4914C160.249 68.5172 160.159 68.5387 160.056 68.5559C159.961 68.5817 159.845 68.5946 159.707 68.5946ZM161.873 68.4785V62.2082H162.931V68.4785H161.873ZM162.402 60.918C162.196 60.918 162.024 60.8535 161.886 60.7245C161.757 60.5954 161.693 60.4277 161.693 60.2213C161.693 60.0149 161.757 59.8471 161.886 59.7181C162.024 59.5891 162.196 59.5246 162.402 59.5246C162.609 59.5246 162.776 59.5891 162.905 59.7181C163.043 59.8471 163.112 60.0149 163.112 60.2213C163.112 60.4277 163.043 60.5954 162.905 60.7245C162.776 60.8535 162.609 60.918 162.402 60.918ZM167.164 71.3685C166.657 71.3685 166.205 71.2997 165.81 71.1621C165.423 71.0331 165.117 70.8439 164.894 70.5944C164.679 70.345 164.571 70.0396 164.571 69.6784C164.571 69.4118 164.653 69.1537 164.816 68.9043C164.98 68.6634 165.203 68.4484 165.487 68.2592V68.2076C165.332 68.1044 165.199 67.971 165.087 67.8076C164.984 67.6356 164.932 67.4292 164.932 67.1883C164.932 66.9217 165.005 66.6894 165.152 66.4916C165.306 66.2938 165.461 66.139 165.616 66.0272V65.9755C165.418 65.8035 165.233 65.5713 165.061 65.2788C164.889 64.9864 164.803 64.6552 164.803 64.2854C164.803 63.8295 164.911 63.4339 165.126 63.0984C165.349 62.763 165.638 62.5049 165.99 62.3243C166.351 62.1437 166.743 62.0534 167.164 62.0534C167.336 62.0534 167.5 62.0706 167.655 62.105C167.809 62.1308 167.943 62.1652 168.055 62.2082H170.235V63.021H168.932V63.0726C169.087 63.2102 169.211 63.3823 169.306 63.5887C169.409 63.7951 169.461 64.0403 169.461 64.3241C169.461 64.7714 169.358 65.1584 169.151 65.4853C168.945 65.8035 168.67 66.053 168.325 66.2336C167.981 66.4056 167.594 66.4916 167.164 66.4916C167.009 66.4916 166.85 66.4744 166.687 66.44C166.524 66.397 166.369 66.3411 166.222 66.2723C166.119 66.3669 166.025 66.4701 165.939 66.5819C165.861 66.6938 165.823 66.84 165.823 67.0206C165.823 67.2184 165.9 67.3819 166.055 67.5109C166.218 67.6399 166.511 67.7044 166.932 67.7044H168.145C168.876 67.7044 169.422 67.8248 169.783 68.0657C170.153 68.2979 170.338 68.6763 170.338 69.201C170.338 69.5881 170.209 69.945 169.951 70.2719C169.693 70.5987 169.323 70.8611 168.842 71.0589C168.368 71.2653 167.809 71.3685 167.164 71.3685ZM167.164 65.782C167.405 65.782 167.624 65.7218 167.822 65.6014C168.029 65.4724 168.192 65.296 168.313 65.0724C168.433 64.8488 168.493 64.5864 168.493 64.2854C168.493 63.8209 168.364 63.464 168.106 63.2145C167.848 62.9565 167.534 62.8275 167.164 62.8275C166.794 62.8275 166.481 62.9565 166.222 63.2145C165.964 63.464 165.835 63.8209 165.835 64.2854C165.835 64.5864 165.896 64.8488 166.016 65.0724C166.136 65.296 166.296 65.4724 166.493 65.6014C166.7 65.7218 166.923 65.782 167.164 65.782ZM167.319 70.6331C167.715 70.6331 168.059 70.5729 168.351 70.4525C168.652 70.3321 168.885 70.173 169.048 69.9751C169.22 69.7773 169.306 69.5709 169.306 69.3558C169.306 69.0634 169.194 68.8613 168.971 68.7495C168.756 68.6376 168.446 68.5817 168.042 68.5817H166.958C166.837 68.5817 166.704 68.5731 166.558 68.5559C166.42 68.5387 166.283 68.5129 166.145 68.4785C165.913 68.6419 165.745 68.814 165.642 68.9946C165.547 69.1752 165.5 69.3558 165.5 69.5365C165.5 69.8719 165.659 70.1386 165.977 70.3364C166.304 70.5342 166.751 70.6331 167.319 70.6331ZM171.55 68.4785V59.2924H172.608V61.7953L172.569 63.0855C172.87 62.8017 173.184 62.5608 173.511 62.363C173.846 62.1566 174.229 62.0534 174.659 62.0534C175.321 62.0534 175.803 62.2641 176.104 62.6856C176.414 63.0984 176.569 63.7048 176.569 64.5047V68.4785H175.511V64.6466C175.511 64.0532 175.416 63.6274 175.227 63.3694C175.046 63.1027 174.745 62.9694 174.324 62.9694C174.005 62.9694 173.717 63.0511 173.459 63.2145C173.21 63.378 172.926 63.6188 172.608 63.937V68.4785H171.55ZM180.542 68.5946C179.879 68.5946 179.415 68.4011 179.148 68.014C178.882 67.627 178.748 67.1238 178.748 66.5045V63.0726H177.819V62.2727L178.8 62.2082L178.929 60.1955H179.819V62.2082H181.522V63.0726H179.819V66.5174C179.819 66.8959 179.888 67.1926 180.026 67.4077C180.172 67.6227 180.426 67.7302 180.787 67.7302C180.899 67.7302 181.015 67.7216 181.135 67.7044C181.256 67.6786 181.376 67.6356 181.496 67.5754L181.729 68.3237C181.565 68.4011 181.38 68.4656 181.174 68.5172C180.967 68.5688 180.757 68.5946 180.542 68.5946Z" fill="white"/>
</svg>
